<svg width="48" height="48" viewBox="0 0 48 48" fill="none" xmlns="http://www.w3.org/2000/svg">
  <rect width="48" height="48" rx="10" fill="#0a66c2"/>
  <path d="M14 18.5h4.2v13.5H14V18.5zm2.1-6.7c1.35 0 2.45 1.1 2.45 2.45 0 1.35-1.1 2.45-2.45 2.45-1.36 0-2.46-1.1-2.46-2.45 0-1.35 1.1-2.45 2.46-2.45zM21 18.5h4v1.85h.06c.56-1.05 1.92-2.16 3.95-2.16 4.22 0 5 2.78 5 6.4v7.41h-4.2v-6.57c0-1.57-.03-3.59-2.19-3.59-2.19 0-2.52 1.71-2.52 3.47v6.69H21V18.5z" fill="white"/>
  <circle cx="36" cy="14" r="4" fill="#5fbf73"/>
</svg>
